:SAMPLES-PER-SECOND 30
:FULLY-SPECIFIED
:DEGREES
143
root  -10.6684 40.4647 7.02287 -169.19 -68.5479 171.031
RightUpLeg  -12.6306 -14.2135 -10.8817
RightLeg  13.9815 -1.11834 0.749389
RightFoot  -0.950812 -0.406646 4.39804
RightToes  -2.9104e-010 0 -3.6325e-017
Spine  15.5426 -1.59039 4.65492
Spine1  19.7995 -1.52396 1.00254
HEad  -10.9268 0.392495 -7.87517
LeftShoulder1  8.88927 -13.7518 -44.8879
LeftArm  -8.3252 10.1212 -28.3703
LeftForeArm  39.6902 -38.7592 -6.53331
LeftHand  -0.244104 0.0205437 5.32207
RightShoulder  4.39218 8.29803 31.2685
RightArm  -21.5026 17.4678 8.56228
RightForeArm  72.7167 78.4373 101.344
RightHand  -1.45843 5.25734 -16.0946
LeftUpLeg  -11.9803 9.9379 1.96702
LeftLeg  10.0527 8.63784 -1.74896
LeftFoot  1.81801 0.023308 -0.296918
LeftToes  -1.62803e-010 -2.57217e-011 -2.5681e-011
144
root  -10.7107 40.4648 7.18488 -168.074 -70.8254 170.03
RightUpLeg  -12.0472 -15.1879 -11.4496
RightLeg  13.8453 -2.27226 0.588113
RightFoot  -0.9706 -0.452489 4.90911
RightToes  -2.9104e-010 0 -3.6325e-017
Spine  15.4567 -1.2589 4.69661
Spine1  20.13 -0.930711 0.416876
HEad  -9.79447 -1.73559 -7.62412
LeftShoulder1  8.85752 -13.7796 -44.6453
LeftArm  -8.4863 9.53105 -28.5349
LeftForeArm  39.4079 -37.7438 -6.27128
LeftHand  -0.244104 0.0205437 5.32207
RightShoulder  4.62929 8.72288 31.9195
RightArm  -20.112 19.36 11.1406
RightForeArm  62.2133 78.6041 91.9703
RightHand  -1.91558 6.8384 -18.347
LeftUpLeg  -12.363 8.95875 1.52946
LeftLeg  9.74426 7.49959 -2.08949
LeftFoot  2.20095 -0.0254492 0.102654
LeftToes  -1.62803e-010 -2.57217e-011 -2.5681e-011
145
root  -10.7559 40.4624 7.339 -167.004 -72.9776 169.139
RightUpLeg  -11.4896 -16.0492 -11.9111
RightLeg  13.6656 -3.43777 0.483318
RightFoot  -0.94358 -0.49314 5.34412
RightToes  -2.9104e-010 0 -3.6325e-017
Spine  15.3896 -0.871581 4.84894
Spine1  20.3412 -0.228926 -0.235309
HEad  -8.35099 -4.06357 -6.97398
LeftShoulder1  8.79201 -13.7901 -44.2715
LeftArm  -8.59508 9.13411 -28.8028
LeftForeArm  38.9674 -36.8978 -6.07018
LeftHand  -0.244104 0.0205437 5.32207
RightShoulder  4.83789 9.09894 32.4469
RightArm  -18.7304 22.7054 13.8
RightForeArm  44.4154 78.1748 75.1111
RightHand  -2.56892 8.87952 -20.9973
LeftUpLeg  -12.8364 8.31361 1.14972
LeftLeg  9.63037 6.15429 -2.35327
LeftFoot  2.47701 -0.0633496 0.399137
LeftToes  -1.62803e-010 -2.57217e-011 -2.5681e-011
146
root  -10.8018 40.4608 7.48832 -166.105 -74.9105 168.379
RightUpLeg  -10.8755 -16.7034 -12.3168
RightLeg  13.4071 -4.5719 0.450574
RightFoot  -0.861869 -0.529237 5.70123
RightToes  -2.9104e-010 0 -3.6325e-017
Spine  15.4336 -0.428647 5.15986
Spine1  20.4551 0.614204 -1.01785
HEad  -6.74143 -6.35855 -6.06541
LeftShoulder1  8.74929 -13.8336 -43.9291
LeftArm  -8.57963 8.95106 -28.9388
LeftForeArm  38.6615 -36.3478 -5.94332
LeftHand  -0.244104 0.0205437 5.32207
RightShoulder  4.9631 9.37325 32.6017
RightArm  -17.447 27.4416 16.4464
RightForeArm  22.4828 75.9175 54.2381
RightHand  -3.41851 11.2275 -23.8801
LeftUpLeg  -13.2541 7.87229 0.810811
LeftLeg  9.62958 4.84154 -2.53444
LeftFoot  2.66823 -0.110486 0.767787
LeftToes  -1.62803e-010 -2.57217e-011 -2.5681e-011
147
root  -10.8442 40.4564 7.6312 -165.387 -76.6046 167.726
RightUpLeg  -10.2179 -17.235 -12.6901
RightLeg  13.1383 -5.54862 0.485791
RightFoot  -0.784616 -0.563721 6.03752
RightToes  -2.9104e-010 0 -3.6325e-017
Spine  15.5033 0.0961637 5.67116
Spine1  20.6873 1.63566 -1.94167
HEad  -5.3695 -8.52772 -5.03012
LeftShoulder1  8.74498 -13.9363 -43.6338
LeftArm  -8.42614 8.69118 -28.974
LeftForeArm  38.5551 -35.8272 -5.81469
LeftHand  -0.244104 0.0205437 5.32207
RightShoulder  4.96449 9.56332 32.0502
RightArm  -16.4637 33.1271 18.9983
RightForeArm  3.78095 71.2354 37.1856
RightHand  -4.36272 13.5988 -26.5451
LeftUpLeg  -13.5858 7.59786 0.493081
LeftLeg  9.72641 3.62116 -2.63963
LeftFoot  2.78633 -0.167717 1.21748
LeftToes  -1.62803e-010 -2.57217e-011 -2.5681e-011
148
root  -10.878 40.4466 7.76353 -164.644 -78.1416 167.042
RightUpLeg  -9.63897 -17.7137 -13.0182
RightLeg  12.9581 -6.41916 0.529972
RightFoot  -0.741154 -0.596116 6.36408
RightToes  -2.9104e-010 0 -3.6325e-017
Spine  15.5826 0.674071 6.37094
Spine1  21.0252 2.79916 -2.98735
HEad  -4.47201 -10.6103 -3.77653
LeftShoulder1  8.74521 -14.0629 -43.3022
LeftArm  -8.23111 8.25008 -29.0051
LeftForeArm  38.4409 -35.2278 -5.66798
LeftHand  -0.244104 0.0205437 5.32207
RightShoulder  4.84427 9.70038 30.7343
RightArm  -16.0667 39.1769 21.2165
RightForeArm  -9.13061 64.7962 26.2158
RightHand  -5.22222 15.6591 -28.5484
LeftUpLeg  -13.9427 7.42493 0.177976
LeftLeg  9.92491 2.43961 -2.68354
LeftFoot  2.86357 -0.214654 1.58367
LeftToes  -1.62803e-010 -2.57217e-011 -2.5681e-011
149
root  -10.904 40.434 7.88281 -163.588 -79.5759 166.12
RightUpLeg  -9.22713 -18.1068 -13.2923
RightLeg  12.8763 -7.32748 0.525633
RightFoot  -0.708331 -0.625615 6.66277
RightToes  -2.9104e-010 0 -3.6325e-017
Spine  15.7567 1.24727 7.22118
Spine1  21.22 4.04589 -4.18026
HEad  -3.87548 -12.5991 -2.22231
LeftShoulder1  8.74713 -14.1954 -42.9681
LeftArm  -8.03012 7.85029 -28.9411
LeftForeArm  38.2086 -34.7349 -5.55656
LeftHand  -0.244104 0.0205437 5.32207
RightShoulder  4.63859 9.77618 28.9442
RightArm  -16.4925 45.1688 22.6426
RightForeArm  -17.4011 57.4144 19.3106
RightHand  -5.88176 17.2183 -29.8441
LeftUpLeg  -14.3852 7.2264 -0.140542
LeftLeg  10.1584 1.33213 -2.70002
LeftFoot  2.93109 -0.242515 1.79527
LeftToes  -1.62803e-010 -2.57217e-011 -2.5681e-011
